<mxfile host="Electron" modified="2024-03-08T01:22:48.871Z" agent="Mozilla/5.0 (Windows NT 10.0; Win64; x64) AppleWebKit/537.36 (KHTML, like Gecko) draw.io/23.1.5 Chrome/120.0.6099.109 Electron/28.1.0 Safari/537.36" etag="fII1qBovJ4CYwyWzfDwR" version="23.1.5" type="device">
  <diagram name="Halaman-1" id="djf1UKMMGEIlGzraxKbz">
    <mxGraphModel dx="1036" dy="606" grid="1" gridSize="10" guides="1" tooltips="1" connect="1" arrows="1" fold="1" page="1" pageScale="1" pageWidth="850" pageHeight="1100" math="0" shadow="0">
      <root>
        <mxCell id="0" />
        <mxCell id="1" parent="0" />
        <mxCell id="90CxSvgSGTxoaNkG4nQN-10" style="edgeStyle=orthogonalEdgeStyle;rounded=0;orthogonalLoop=1;jettySize=auto;html=1;exitX=0.5;exitY=1;exitDx=0;exitDy=0;" parent="1" source="90CxSvgSGTxoaNkG4nQN-1" target="90CxSvgSGTxoaNkG4nQN-2" edge="1">
          <mxGeometry relative="1" as="geometry" />
        </mxCell>
        <mxCell id="90CxSvgSGTxoaNkG4nQN-1" value="START" style="ellipse;whiteSpace=wrap;html=1;" parent="1" vertex="1">
          <mxGeometry x="432.5" y="120" width="120" height="80" as="geometry" />
        </mxCell>
        <mxCell id="90CxSvgSGTxoaNkG4nQN-8" style="edgeStyle=orthogonalEdgeStyle;rounded=0;orthogonalLoop=1;jettySize=auto;html=1;" parent="1" source="90CxSvgSGTxoaNkG4nQN-2" target="90CxSvgSGTxoaNkG4nQN-3" edge="1">
          <mxGeometry relative="1" as="geometry" />
        </mxCell>
        <mxCell id="90CxSvgSGTxoaNkG4nQN-2" value="INPUT &lt;br&gt;username=$username;&lt;br&gt;password=$password;" style="shape=parallelogram;perimeter=parallelogramPerimeter;whiteSpace=wrap;html=1;fixedSize=1;" parent="1" vertex="1">
          <mxGeometry x="392.5" y="240" width="200" height="80" as="geometry" />
        </mxCell>
        <mxCell id="90CxSvgSGTxoaNkG4nQN-9" style="edgeStyle=orthogonalEdgeStyle;rounded=0;orthogonalLoop=1;jettySize=auto;html=1;" parent="1" target="90CxSvgSGTxoaNkG4nQN-4" edge="1">
          <mxGeometry relative="1" as="geometry">
            <mxPoint x="492.5" y="520" as="sourcePoint" />
          </mxGeometry>
        </mxCell>
        <mxCell id="90CxSvgSGTxoaNkG4nQN-59" style="edgeStyle=orthogonalEdgeStyle;rounded=0;orthogonalLoop=1;jettySize=auto;html=1;" parent="1" source="90CxSvgSGTxoaNkG4nQN-3" target="90CxSvgSGTxoaNkG4nQN-58" edge="1">
          <mxGeometry relative="1" as="geometry" />
        </mxCell>
        <mxCell id="90CxSvgSGTxoaNkG4nQN-3" value="action=&quot;check.php&quot; method=&quot;post&quot;" style="rounded=0;whiteSpace=wrap;html=1;" parent="1" vertex="1">
          <mxGeometry x="432.5" y="360" width="120" height="60" as="geometry" />
        </mxCell>
        <mxCell id="90CxSvgSGTxoaNkG4nQN-5" style="edgeStyle=orthogonalEdgeStyle;rounded=0;orthogonalLoop=1;jettySize=auto;html=1;" parent="1" source="90CxSvgSGTxoaNkG4nQN-4" target="90CxSvgSGTxoaNkG4nQN-6" edge="1">
          <mxGeometry relative="1" as="geometry">
            <mxPoint x="262.5" y="600" as="targetPoint" />
          </mxGeometry>
        </mxCell>
        <mxCell id="90CxSvgSGTxoaNkG4nQN-11" value="YES" style="edgeLabel;html=1;align=center;verticalAlign=middle;resizable=0;points=[];" parent="90CxSvgSGTxoaNkG4nQN-5" vertex="1" connectable="0">
          <mxGeometry x="0.0233" y="-2" relative="1" as="geometry">
            <mxPoint x="68" y="31" as="offset" />
          </mxGeometry>
        </mxCell>
        <mxCell id="90CxSvgSGTxoaNkG4nQN-13" style="edgeStyle=orthogonalEdgeStyle;rounded=0;orthogonalLoop=1;jettySize=auto;html=1;" parent="1" source="90CxSvgSGTxoaNkG4nQN-4" target="90CxSvgSGTxoaNkG4nQN-12" edge="1">
          <mxGeometry relative="1" as="geometry" />
        </mxCell>
        <mxCell id="90CxSvgSGTxoaNkG4nQN-60" value="NO" style="edgeLabel;html=1;align=center;verticalAlign=middle;resizable=0;points=[];" parent="90CxSvgSGTxoaNkG4nQN-13" vertex="1" connectable="0">
          <mxGeometry x="-0.4" y="2" relative="1" as="geometry">
            <mxPoint x="-2" y="8" as="offset" />
          </mxGeometry>
        </mxCell>
        <mxCell id="90CxSvgSGTxoaNkG4nQN-4" value="if &lt;br&gt;$_SESSION != SUPERADMIN&lt;div&gt;&lt;br&gt;&lt;/div&gt;" style="rhombus;whiteSpace=wrap;html=1;" parent="1" vertex="1">
          <mxGeometry x="392.5" y="560" width="200" height="90" as="geometry" />
        </mxCell>
        <mxCell id="90CxSvgSGTxoaNkG4nQN-7" style="edgeStyle=orthogonalEdgeStyle;rounded=0;orthogonalLoop=1;jettySize=auto;html=1;entryX=0;entryY=0.5;entryDx=0;entryDy=0;exitX=0.5;exitY=0;exitDx=0;exitDy=0;" parent="1" source="90CxSvgSGTxoaNkG4nQN-6" target="90CxSvgSGTxoaNkG4nQN-2" edge="1">
          <mxGeometry relative="1" as="geometry">
            <Array as="points">
              <mxPoint x="262.5" y="270" />
            </Array>
          </mxGeometry>
        </mxCell>
        <mxCell id="90CxSvgSGTxoaNkG4nQN-6" value="alert(&quot;username atau password salah&quot;)" style="rounded=0;whiteSpace=wrap;html=1;" parent="1" vertex="1">
          <mxGeometry x="202.5" y="360" width="120" height="60" as="geometry" />
        </mxCell>
        <mxCell id="90CxSvgSGTxoaNkG4nQN-15" style="edgeStyle=orthogonalEdgeStyle;rounded=0;orthogonalLoop=1;jettySize=auto;html=1;" parent="1" source="90CxSvgSGTxoaNkG4nQN-12" target="90CxSvgSGTxoaNkG4nQN-14" edge="1">
          <mxGeometry relative="1" as="geometry" />
        </mxCell>
        <mxCell id="90CxSvgSGTxoaNkG4nQN-12" value="header(&quot;location:superadmin/dashboard.php&quot;);" style="shape=parallelogram;perimeter=parallelogramPerimeter;whiteSpace=wrap;html=1;fixedSize=1;" parent="1" vertex="1">
          <mxGeometry x="347.5" y="700" width="290" height="60" as="geometry" />
        </mxCell>
        <mxCell id="90CxSvgSGTxoaNkG4nQN-14" value="END" style="ellipse;whiteSpace=wrap;html=1;" parent="1" vertex="1">
          <mxGeometry x="432.5" y="820" width="120" height="80" as="geometry" />
        </mxCell>
        <mxCell id="90CxSvgSGTxoaNkG4nQN-20" style="edgeStyle=orthogonalEdgeStyle;rounded=0;orthogonalLoop=1;jettySize=auto;html=1;" parent="1" source="90CxSvgSGTxoaNkG4nQN-16" target="90CxSvgSGTxoaNkG4nQN-17" edge="1">
          <mxGeometry relative="1" as="geometry" />
        </mxCell>
        <mxCell id="90CxSvgSGTxoaNkG4nQN-21" style="edgeStyle=orthogonalEdgeStyle;rounded=0;orthogonalLoop=1;jettySize=auto;html=1;" parent="1" target="90CxSvgSGTxoaNkG4nQN-18" edge="1">
          <mxGeometry relative="1" as="geometry">
            <mxPoint x="1270" y="230" as="sourcePoint" />
          </mxGeometry>
        </mxCell>
        <mxCell id="90CxSvgSGTxoaNkG4nQN-22" style="edgeStyle=orthogonalEdgeStyle;rounded=0;orthogonalLoop=1;jettySize=auto;html=1;" parent="1" target="90CxSvgSGTxoaNkG4nQN-19" edge="1">
          <mxGeometry relative="1" as="geometry">
            <mxPoint x="1270" y="230" as="sourcePoint" />
          </mxGeometry>
        </mxCell>
        <mxCell id="90CxSvgSGTxoaNkG4nQN-16" value="START" style="ellipse;whiteSpace=wrap;html=1;" parent="1" vertex="1">
          <mxGeometry x="1210" y="120" width="120" height="80" as="geometry" />
        </mxCell>
        <mxCell id="90CxSvgSGTxoaNkG4nQN-27" style="edgeStyle=orthogonalEdgeStyle;rounded=0;orthogonalLoop=1;jettySize=auto;html=1;" parent="1" source="90CxSvgSGTxoaNkG4nQN-17" target="90CxSvgSGTxoaNkG4nQN-24" edge="1">
          <mxGeometry relative="1" as="geometry" />
        </mxCell>
        <mxCell id="90CxSvgSGTxoaNkG4nQN-17" value="UPDATE" style="shape=process;whiteSpace=wrap;html=1;backgroundOutline=1;" parent="1" vertex="1">
          <mxGeometry x="1210" y="280" width="120" height="60" as="geometry" />
        </mxCell>
        <mxCell id="90CxSvgSGTxoaNkG4nQN-26" style="edgeStyle=orthogonalEdgeStyle;rounded=0;orthogonalLoop=1;jettySize=auto;html=1;" parent="1" source="90CxSvgSGTxoaNkG4nQN-18" target="90CxSvgSGTxoaNkG4nQN-23" edge="1">
          <mxGeometry relative="1" as="geometry" />
        </mxCell>
        <mxCell id="90CxSvgSGTxoaNkG4nQN-18" value="INSERT" style="shape=process;whiteSpace=wrap;html=1;backgroundOutline=1;" parent="1" vertex="1">
          <mxGeometry x="1010" y="280" width="120" height="60" as="geometry" />
        </mxCell>
        <mxCell id="90CxSvgSGTxoaNkG4nQN-28" style="edgeStyle=orthogonalEdgeStyle;rounded=0;orthogonalLoop=1;jettySize=auto;html=1;" parent="1" source="90CxSvgSGTxoaNkG4nQN-19" target="90CxSvgSGTxoaNkG4nQN-25" edge="1">
          <mxGeometry relative="1" as="geometry" />
        </mxCell>
        <mxCell id="90CxSvgSGTxoaNkG4nQN-19" value="DELETE" style="shape=process;whiteSpace=wrap;html=1;backgroundOutline=1;" parent="1" vertex="1">
          <mxGeometry x="1415" y="280" width="120" height="60" as="geometry" />
        </mxCell>
        <mxCell id="90CxSvgSGTxoaNkG4nQN-33" style="edgeStyle=orthogonalEdgeStyle;rounded=0;orthogonalLoop=1;jettySize=auto;html=1;exitX=0.5;exitY=1;exitDx=0;exitDy=0;" parent="1" source="90CxSvgSGTxoaNkG4nQN-23" target="90CxSvgSGTxoaNkG4nQN-30" edge="1">
          <mxGeometry relative="1" as="geometry" />
        </mxCell>
        <mxCell id="90CxSvgSGTxoaNkG4nQN-23" value="id(auto_increment),&lt;br&gt;nip, nama, mapel, agama, jenisKelamin," style="shape=parallelogram;perimeter=parallelogramPerimeter;whiteSpace=wrap;html=1;fixedSize=1;" parent="1" vertex="1">
          <mxGeometry x="970" y="390" width="200" height="60" as="geometry" />
        </mxCell>
        <mxCell id="90CxSvgSGTxoaNkG4nQN-34" style="edgeStyle=orthogonalEdgeStyle;rounded=0;orthogonalLoop=1;jettySize=auto;html=1;" parent="1" source="90CxSvgSGTxoaNkG4nQN-24" target="90CxSvgSGTxoaNkG4nQN-31" edge="1">
          <mxGeometry relative="1" as="geometry" />
        </mxCell>
        <mxCell id="90CxSvgSGTxoaNkG4nQN-24" value="nip, nama, mapel, agama, jenisKelamin," style="shape=parallelogram;perimeter=parallelogramPerimeter;whiteSpace=wrap;html=1;fixedSize=1;" parent="1" vertex="1">
          <mxGeometry x="1170" y="390" width="200" height="60" as="geometry" />
        </mxCell>
        <mxCell id="90CxSvgSGTxoaNkG4nQN-35" style="edgeStyle=orthogonalEdgeStyle;rounded=0;orthogonalLoop=1;jettySize=auto;html=1;" parent="1" source="90CxSvgSGTxoaNkG4nQN-25" target="90CxSvgSGTxoaNkG4nQN-32" edge="1">
          <mxGeometry relative="1" as="geometry" />
        </mxCell>
        <mxCell id="90CxSvgSGTxoaNkG4nQN-25" value="select id" style="shape=parallelogram;perimeter=parallelogramPerimeter;whiteSpace=wrap;html=1;fixedSize=1;" parent="1" vertex="1">
          <mxGeometry x="1370.63" y="390" width="208.75" height="60" as="geometry" />
        </mxCell>
        <mxCell id="90CxSvgSGTxoaNkG4nQN-29" value="&lt;font style=&quot;font-size: 22px;&quot;&gt;FLOWCHART IT ADMIN&lt;/font&gt;" style="text;html=1;align=center;verticalAlign=middle;whiteSpace=wrap;rounded=0;fontStyle=1" parent="1" vertex="1">
          <mxGeometry x="710" y="40" width="290" height="30" as="geometry" />
        </mxCell>
        <mxCell id="90CxSvgSGTxoaNkG4nQN-43" style="edgeStyle=orthogonalEdgeStyle;rounded=0;orthogonalLoop=1;jettySize=auto;html=1;" parent="1" source="90CxSvgSGTxoaNkG4nQN-30" target="90CxSvgSGTxoaNkG4nQN-39" edge="1">
          <mxGeometry relative="1" as="geometry" />
        </mxCell>
        <mxCell id="90CxSvgSGTxoaNkG4nQN-30" value="SAVE" style="rounded=0;whiteSpace=wrap;html=1;" parent="1" vertex="1">
          <mxGeometry x="1010" y="490" width="120" height="60" as="geometry" />
        </mxCell>
        <mxCell id="90CxSvgSGTxoaNkG4nQN-44" style="edgeStyle=orthogonalEdgeStyle;rounded=0;orthogonalLoop=1;jettySize=auto;html=1;" parent="1" source="90CxSvgSGTxoaNkG4nQN-31" target="90CxSvgSGTxoaNkG4nQN-47" edge="1">
          <mxGeometry relative="1" as="geometry">
            <mxPoint x="1270" y="610" as="targetPoint" />
          </mxGeometry>
        </mxCell>
        <mxCell id="90CxSvgSGTxoaNkG4nQN-31" value="SAVE" style="rounded=0;whiteSpace=wrap;html=1;" parent="1" vertex="1">
          <mxGeometry x="1210" y="490" width="120" height="60" as="geometry" />
        </mxCell>
        <mxCell id="90CxSvgSGTxoaNkG4nQN-51" style="edgeStyle=orthogonalEdgeStyle;rounded=0;orthogonalLoop=1;jettySize=auto;html=1;" parent="1" source="90CxSvgSGTxoaNkG4nQN-32" target="90CxSvgSGTxoaNkG4nQN-46" edge="1">
          <mxGeometry relative="1" as="geometry" />
        </mxCell>
        <mxCell id="90CxSvgSGTxoaNkG4nQN-32" value="DELETE" style="rounded=0;whiteSpace=wrap;html=1;" parent="1" vertex="1">
          <mxGeometry x="1415" y="490" width="120" height="60" as="geometry" />
        </mxCell>
        <mxCell id="90CxSvgSGTxoaNkG4nQN-55" style="edgeStyle=orthogonalEdgeStyle;rounded=0;orthogonalLoop=1;jettySize=auto;html=1;entryX=0.5;entryY=0;entryDx=0;entryDy=0;" parent="1" source="90CxSvgSGTxoaNkG4nQN-39" target="90CxSvgSGTxoaNkG4nQN-52" edge="1">
          <mxGeometry relative="1" as="geometry">
            <Array as="points">
              <mxPoint x="1070" y="720" />
              <mxPoint x="1270" y="720" />
            </Array>
          </mxGeometry>
        </mxCell>
        <mxCell id="90CxSvgSGTxoaNkG4nQN-39" value="DATABASE" style="strokeWidth=2;html=1;shape=mxgraph.flowchart.database;whiteSpace=wrap;" parent="1" vertex="1">
          <mxGeometry x="1015" y="610" width="110" height="60" as="geometry" />
        </mxCell>
        <mxCell id="90CxSvgSGTxoaNkG4nQN-57" style="edgeStyle=orthogonalEdgeStyle;rounded=0;orthogonalLoop=1;jettySize=auto;html=1;" parent="1" source="90CxSvgSGTxoaNkG4nQN-46" target="90CxSvgSGTxoaNkG4nQN-52" edge="1">
          <mxGeometry relative="1" as="geometry">
            <Array as="points">
              <mxPoint x="1475" y="720" />
              <mxPoint x="1270" y="720" />
            </Array>
          </mxGeometry>
        </mxCell>
        <mxCell id="90CxSvgSGTxoaNkG4nQN-46" value="DATABASE" style="strokeWidth=2;html=1;shape=mxgraph.flowchart.database;whiteSpace=wrap;" parent="1" vertex="1">
          <mxGeometry x="1420" y="610" width="110" height="60" as="geometry" />
        </mxCell>
        <mxCell id="90CxSvgSGTxoaNkG4nQN-56" style="edgeStyle=orthogonalEdgeStyle;rounded=0;orthogonalLoop=1;jettySize=auto;html=1;" parent="1" source="90CxSvgSGTxoaNkG4nQN-47" target="90CxSvgSGTxoaNkG4nQN-52" edge="1">
          <mxGeometry relative="1" as="geometry" />
        </mxCell>
        <mxCell id="90CxSvgSGTxoaNkG4nQN-47" value="DATABASE" style="strokeWidth=2;html=1;shape=mxgraph.flowchart.database;whiteSpace=wrap;" parent="1" vertex="1">
          <mxGeometry x="1215" y="610" width="110" height="60" as="geometry" />
        </mxCell>
        <mxCell id="90CxSvgSGTxoaNkG4nQN-52" value="END" style="ellipse;whiteSpace=wrap;html=1;" parent="1" vertex="1">
          <mxGeometry x="1210" y="760" width="120" height="80" as="geometry" />
        </mxCell>
        <mxCell id="90CxSvgSGTxoaNkG4nQN-58" value="DATABASE" style="strokeWidth=2;html=1;shape=mxgraph.flowchart.database;whiteSpace=wrap;" parent="1" vertex="1">
          <mxGeometry x="437.5" y="460" width="110" height="60" as="geometry" />
        </mxCell>
        <mxCell id="90CxSvgSGTxoaNkG4nQN-61" style="edgeStyle=orthogonalEdgeStyle;rounded=0;orthogonalLoop=1;jettySize=auto;html=1;" parent="1" source="90CxSvgSGTxoaNkG4nQN-64" target="90CxSvgSGTxoaNkG4nQN-66" edge="1">
          <mxGeometry relative="1" as="geometry" />
        </mxCell>
        <mxCell id="90CxSvgSGTxoaNkG4nQN-62" style="edgeStyle=orthogonalEdgeStyle;rounded=0;orthogonalLoop=1;jettySize=auto;html=1;" parent="1" target="90CxSvgSGTxoaNkG4nQN-68" edge="1">
          <mxGeometry relative="1" as="geometry">
            <mxPoint x="1270" y="1340" as="sourcePoint" />
          </mxGeometry>
        </mxCell>
        <mxCell id="90CxSvgSGTxoaNkG4nQN-63" style="edgeStyle=orthogonalEdgeStyle;rounded=0;orthogonalLoop=1;jettySize=auto;html=1;" parent="1" target="90CxSvgSGTxoaNkG4nQN-70" edge="1">
          <mxGeometry relative="1" as="geometry">
            <mxPoint x="1270" y="1340" as="sourcePoint" />
          </mxGeometry>
        </mxCell>
        <mxCell id="90CxSvgSGTxoaNkG4nQN-64" value="START" style="ellipse;whiteSpace=wrap;html=1;" parent="1" vertex="1">
          <mxGeometry x="1210" y="1230" width="120" height="80" as="geometry" />
        </mxCell>
        <mxCell id="90CxSvgSGTxoaNkG4nQN-65" style="edgeStyle=orthogonalEdgeStyle;rounded=0;orthogonalLoop=1;jettySize=auto;html=1;" parent="1" source="90CxSvgSGTxoaNkG4nQN-66" target="90CxSvgSGTxoaNkG4nQN-74" edge="1">
          <mxGeometry relative="1" as="geometry" />
        </mxCell>
        <mxCell id="90CxSvgSGTxoaNkG4nQN-66" value="UPDATE" style="shape=process;whiteSpace=wrap;html=1;backgroundOutline=1;" parent="1" vertex="1">
          <mxGeometry x="1210" y="1390" width="120" height="60" as="geometry" />
        </mxCell>
        <mxCell id="90CxSvgSGTxoaNkG4nQN-67" style="edgeStyle=orthogonalEdgeStyle;rounded=0;orthogonalLoop=1;jettySize=auto;html=1;" parent="1" source="90CxSvgSGTxoaNkG4nQN-68" target="90CxSvgSGTxoaNkG4nQN-72" edge="1">
          <mxGeometry relative="1" as="geometry" />
        </mxCell>
        <mxCell id="90CxSvgSGTxoaNkG4nQN-68" value="INSERT" style="shape=process;whiteSpace=wrap;html=1;backgroundOutline=1;" parent="1" vertex="1">
          <mxGeometry x="1010" y="1390" width="120" height="60" as="geometry" />
        </mxCell>
        <mxCell id="90CxSvgSGTxoaNkG4nQN-69" style="edgeStyle=orthogonalEdgeStyle;rounded=0;orthogonalLoop=1;jettySize=auto;html=1;" parent="1" source="90CxSvgSGTxoaNkG4nQN-70" target="90CxSvgSGTxoaNkG4nQN-76" edge="1">
          <mxGeometry relative="1" as="geometry" />
        </mxCell>
        <mxCell id="90CxSvgSGTxoaNkG4nQN-70" value="DELETE" style="shape=process;whiteSpace=wrap;html=1;backgroundOutline=1;" parent="1" vertex="1">
          <mxGeometry x="1415" y="1390" width="120" height="60" as="geometry" />
        </mxCell>
        <mxCell id="90CxSvgSGTxoaNkG4nQN-71" style="edgeStyle=orthogonalEdgeStyle;rounded=0;orthogonalLoop=1;jettySize=auto;html=1;exitX=0.5;exitY=1;exitDx=0;exitDy=0;" parent="1" source="90CxSvgSGTxoaNkG4nQN-72" target="90CxSvgSGTxoaNkG4nQN-78" edge="1">
          <mxGeometry relative="1" as="geometry" />
        </mxCell>
        <mxCell id="90CxSvgSGTxoaNkG4nQN-72" value="id(auto_increment), nis, &lt;br&gt;nama, kelas, agama, jenisKelamin" style="shape=parallelogram;perimeter=parallelogramPerimeter;whiteSpace=wrap;html=1;fixedSize=1;" parent="1" vertex="1">
          <mxGeometry x="970" y="1500" width="200" height="60" as="geometry" />
        </mxCell>
        <mxCell id="90CxSvgSGTxoaNkG4nQN-73" style="edgeStyle=orthogonalEdgeStyle;rounded=0;orthogonalLoop=1;jettySize=auto;html=1;" parent="1" source="90CxSvgSGTxoaNkG4nQN-74" target="90CxSvgSGTxoaNkG4nQN-80" edge="1">
          <mxGeometry relative="1" as="geometry" />
        </mxCell>
        <mxCell id="90CxSvgSGTxoaNkG4nQN-74" value="nis, nama, kelas, agama, jenisKelamin," style="shape=parallelogram;perimeter=parallelogramPerimeter;whiteSpace=wrap;html=1;fixedSize=1;" parent="1" vertex="1">
          <mxGeometry x="1170" y="1500" width="200" height="60" as="geometry" />
        </mxCell>
        <mxCell id="90CxSvgSGTxoaNkG4nQN-75" style="edgeStyle=orthogonalEdgeStyle;rounded=0;orthogonalLoop=1;jettySize=auto;html=1;" parent="1" source="90CxSvgSGTxoaNkG4nQN-76" target="90CxSvgSGTxoaNkG4nQN-82" edge="1">
          <mxGeometry relative="1" as="geometry" />
        </mxCell>
        <mxCell id="90CxSvgSGTxoaNkG4nQN-76" value="select id" style="shape=parallelogram;perimeter=parallelogramPerimeter;whiteSpace=wrap;html=1;fixedSize=1;" parent="1" vertex="1">
          <mxGeometry x="1370.63" y="1500" width="208.75" height="60" as="geometry" />
        </mxCell>
        <mxCell id="90CxSvgSGTxoaNkG4nQN-77" style="edgeStyle=orthogonalEdgeStyle;rounded=0;orthogonalLoop=1;jettySize=auto;html=1;" parent="1" source="90CxSvgSGTxoaNkG4nQN-78" target="90CxSvgSGTxoaNkG4nQN-84" edge="1">
          <mxGeometry relative="1" as="geometry" />
        </mxCell>
        <mxCell id="90CxSvgSGTxoaNkG4nQN-78" value="SAVE" style="rounded=0;whiteSpace=wrap;html=1;" parent="1" vertex="1">
          <mxGeometry x="1010" y="1600" width="120" height="60" as="geometry" />
        </mxCell>
        <mxCell id="90CxSvgSGTxoaNkG4nQN-79" style="edgeStyle=orthogonalEdgeStyle;rounded=0;orthogonalLoop=1;jettySize=auto;html=1;" parent="1" source="90CxSvgSGTxoaNkG4nQN-80" target="90CxSvgSGTxoaNkG4nQN-88" edge="1">
          <mxGeometry relative="1" as="geometry">
            <mxPoint x="1270" y="1720" as="targetPoint" />
          </mxGeometry>
        </mxCell>
        <mxCell id="90CxSvgSGTxoaNkG4nQN-80" value="SAVE" style="rounded=0;whiteSpace=wrap;html=1;" parent="1" vertex="1">
          <mxGeometry x="1210" y="1600" width="120" height="60" as="geometry" />
        </mxCell>
        <mxCell id="90CxSvgSGTxoaNkG4nQN-81" style="edgeStyle=orthogonalEdgeStyle;rounded=0;orthogonalLoop=1;jettySize=auto;html=1;" parent="1" source="90CxSvgSGTxoaNkG4nQN-82" target="90CxSvgSGTxoaNkG4nQN-86" edge="1">
          <mxGeometry relative="1" as="geometry" />
        </mxCell>
        <mxCell id="90CxSvgSGTxoaNkG4nQN-82" value="DELETE" style="rounded=0;whiteSpace=wrap;html=1;" parent="1" vertex="1">
          <mxGeometry x="1415" y="1600" width="120" height="60" as="geometry" />
        </mxCell>
        <mxCell id="90CxSvgSGTxoaNkG4nQN-83" style="edgeStyle=orthogonalEdgeStyle;rounded=0;orthogonalLoop=1;jettySize=auto;html=1;entryX=0.5;entryY=0;entryDx=0;entryDy=0;" parent="1" source="90CxSvgSGTxoaNkG4nQN-84" target="90CxSvgSGTxoaNkG4nQN-89" edge="1">
          <mxGeometry relative="1" as="geometry">
            <Array as="points">
              <mxPoint x="1070" y="1830" />
              <mxPoint x="1270" y="1830" />
            </Array>
          </mxGeometry>
        </mxCell>
        <mxCell id="90CxSvgSGTxoaNkG4nQN-84" value="DATABASE" style="strokeWidth=2;html=1;shape=mxgraph.flowchart.database;whiteSpace=wrap;" parent="1" vertex="1">
          <mxGeometry x="1015" y="1720" width="110" height="60" as="geometry" />
        </mxCell>
        <mxCell id="90CxSvgSGTxoaNkG4nQN-85" style="edgeStyle=orthogonalEdgeStyle;rounded=0;orthogonalLoop=1;jettySize=auto;html=1;" parent="1" source="90CxSvgSGTxoaNkG4nQN-86" target="90CxSvgSGTxoaNkG4nQN-89" edge="1">
          <mxGeometry relative="1" as="geometry">
            <Array as="points">
              <mxPoint x="1475" y="1830" />
              <mxPoint x="1270" y="1830" />
            </Array>
          </mxGeometry>
        </mxCell>
        <mxCell id="90CxSvgSGTxoaNkG4nQN-86" value="DATABASE" style="strokeWidth=2;html=1;shape=mxgraph.flowchart.database;whiteSpace=wrap;" parent="1" vertex="1">
          <mxGeometry x="1420" y="1720" width="110" height="60" as="geometry" />
        </mxCell>
        <mxCell id="90CxSvgSGTxoaNkG4nQN-87" style="edgeStyle=orthogonalEdgeStyle;rounded=0;orthogonalLoop=1;jettySize=auto;html=1;" parent="1" source="90CxSvgSGTxoaNkG4nQN-88" target="90CxSvgSGTxoaNkG4nQN-89" edge="1">
          <mxGeometry relative="1" as="geometry" />
        </mxCell>
        <mxCell id="90CxSvgSGTxoaNkG4nQN-88" value="DATABASE" style="strokeWidth=2;html=1;shape=mxgraph.flowchart.database;whiteSpace=wrap;" parent="1" vertex="1">
          <mxGeometry x="1215" y="1720" width="110" height="60" as="geometry" />
        </mxCell>
        <mxCell id="90CxSvgSGTxoaNkG4nQN-89" value="END" style="ellipse;whiteSpace=wrap;html=1;" parent="1" vertex="1">
          <mxGeometry x="1210" y="1870" width="120" height="80" as="geometry" />
        </mxCell>
        <mxCell id="90CxSvgSGTxoaNkG4nQN-119" style="edgeStyle=orthogonalEdgeStyle;rounded=0;orthogonalLoop=1;jettySize=auto;html=1;" parent="1" source="90CxSvgSGTxoaNkG4nQN-122" target="90CxSvgSGTxoaNkG4nQN-124" edge="1">
          <mxGeometry relative="1" as="geometry" />
        </mxCell>
        <mxCell id="90CxSvgSGTxoaNkG4nQN-120" style="edgeStyle=orthogonalEdgeStyle;rounded=0;orthogonalLoop=1;jettySize=auto;html=1;" parent="1" target="90CxSvgSGTxoaNkG4nQN-126" edge="1">
          <mxGeometry relative="1" as="geometry">
            <mxPoint x="420" y="1360" as="sourcePoint" />
          </mxGeometry>
        </mxCell>
        <mxCell id="90CxSvgSGTxoaNkG4nQN-121" style="edgeStyle=orthogonalEdgeStyle;rounded=0;orthogonalLoop=1;jettySize=auto;html=1;" parent="1" target="90CxSvgSGTxoaNkG4nQN-128" edge="1">
          <mxGeometry relative="1" as="geometry">
            <mxPoint x="420" y="1360" as="sourcePoint" />
          </mxGeometry>
        </mxCell>
        <mxCell id="90CxSvgSGTxoaNkG4nQN-122" value="START" style="ellipse;whiteSpace=wrap;html=1;" parent="1" vertex="1">
          <mxGeometry x="360" y="1250" width="120" height="80" as="geometry" />
        </mxCell>
        <mxCell id="90CxSvgSGTxoaNkG4nQN-123" style="edgeStyle=orthogonalEdgeStyle;rounded=0;orthogonalLoop=1;jettySize=auto;html=1;" parent="1" source="90CxSvgSGTxoaNkG4nQN-124" target="90CxSvgSGTxoaNkG4nQN-132" edge="1">
          <mxGeometry relative="1" as="geometry" />
        </mxCell>
        <mxCell id="90CxSvgSGTxoaNkG4nQN-124" value="UPDATE" style="shape=process;whiteSpace=wrap;html=1;backgroundOutline=1;" parent="1" vertex="1">
          <mxGeometry x="360" y="1410" width="120" height="60" as="geometry" />
        </mxCell>
        <mxCell id="90CxSvgSGTxoaNkG4nQN-125" style="edgeStyle=orthogonalEdgeStyle;rounded=0;orthogonalLoop=1;jettySize=auto;html=1;" parent="1" source="90CxSvgSGTxoaNkG4nQN-126" target="90CxSvgSGTxoaNkG4nQN-130" edge="1">
          <mxGeometry relative="1" as="geometry" />
        </mxCell>
        <mxCell id="90CxSvgSGTxoaNkG4nQN-126" value="INSERT" style="shape=process;whiteSpace=wrap;html=1;backgroundOutline=1;" parent="1" vertex="1">
          <mxGeometry x="160" y="1410" width="120" height="60" as="geometry" />
        </mxCell>
        <mxCell id="90CxSvgSGTxoaNkG4nQN-127" style="edgeStyle=orthogonalEdgeStyle;rounded=0;orthogonalLoop=1;jettySize=auto;html=1;" parent="1" source="90CxSvgSGTxoaNkG4nQN-128" target="90CxSvgSGTxoaNkG4nQN-134" edge="1">
          <mxGeometry relative="1" as="geometry" />
        </mxCell>
        <mxCell id="90CxSvgSGTxoaNkG4nQN-128" value="DELETE" style="shape=process;whiteSpace=wrap;html=1;backgroundOutline=1;" parent="1" vertex="1">
          <mxGeometry x="565" y="1410" width="120" height="60" as="geometry" />
        </mxCell>
        <mxCell id="90CxSvgSGTxoaNkG4nQN-129" style="edgeStyle=orthogonalEdgeStyle;rounded=0;orthogonalLoop=1;jettySize=auto;html=1;exitX=0.5;exitY=1;exitDx=0;exitDy=0;" parent="1" source="90CxSvgSGTxoaNkG4nQN-130" target="90CxSvgSGTxoaNkG4nQN-136" edge="1">
          <mxGeometry relative="1" as="geometry" />
        </mxCell>
        <mxCell id="90CxSvgSGTxoaNkG4nQN-130" value="id(auto_increment), username, password, level" style="shape=parallelogram;perimeter=parallelogramPerimeter;whiteSpace=wrap;html=1;fixedSize=1;" parent="1" vertex="1">
          <mxGeometry x="120" y="1520" width="200" height="60" as="geometry" />
        </mxCell>
        <mxCell id="90CxSvgSGTxoaNkG4nQN-131" style="edgeStyle=orthogonalEdgeStyle;rounded=0;orthogonalLoop=1;jettySize=auto;html=1;" parent="1" source="90CxSvgSGTxoaNkG4nQN-132" target="90CxSvgSGTxoaNkG4nQN-138" edge="1">
          <mxGeometry relative="1" as="geometry" />
        </mxCell>
        <mxCell id="90CxSvgSGTxoaNkG4nQN-132" value="username, password, level" style="shape=parallelogram;perimeter=parallelogramPerimeter;whiteSpace=wrap;html=1;fixedSize=1;" parent="1" vertex="1">
          <mxGeometry x="320" y="1520" width="200" height="60" as="geometry" />
        </mxCell>
        <mxCell id="90CxSvgSGTxoaNkG4nQN-133" style="edgeStyle=orthogonalEdgeStyle;rounded=0;orthogonalLoop=1;jettySize=auto;html=1;" parent="1" source="90CxSvgSGTxoaNkG4nQN-134" target="90CxSvgSGTxoaNkG4nQN-140" edge="1">
          <mxGeometry relative="1" as="geometry" />
        </mxCell>
        <mxCell id="90CxSvgSGTxoaNkG4nQN-134" value="select id" style="shape=parallelogram;perimeter=parallelogramPerimeter;whiteSpace=wrap;html=1;fixedSize=1;" parent="1" vertex="1">
          <mxGeometry x="520.6300000000001" y="1520" width="208.75" height="60" as="geometry" />
        </mxCell>
        <mxCell id="90CxSvgSGTxoaNkG4nQN-135" style="edgeStyle=orthogonalEdgeStyle;rounded=0;orthogonalLoop=1;jettySize=auto;html=1;" parent="1" source="90CxSvgSGTxoaNkG4nQN-136" target="90CxSvgSGTxoaNkG4nQN-142" edge="1">
          <mxGeometry relative="1" as="geometry" />
        </mxCell>
        <mxCell id="90CxSvgSGTxoaNkG4nQN-136" value="SAVE" style="rounded=0;whiteSpace=wrap;html=1;" parent="1" vertex="1">
          <mxGeometry x="160" y="1620" width="120" height="60" as="geometry" />
        </mxCell>
        <mxCell id="90CxSvgSGTxoaNkG4nQN-137" style="edgeStyle=orthogonalEdgeStyle;rounded=0;orthogonalLoop=1;jettySize=auto;html=1;" parent="1" source="90CxSvgSGTxoaNkG4nQN-138" target="90CxSvgSGTxoaNkG4nQN-146" edge="1">
          <mxGeometry relative="1" as="geometry">
            <mxPoint x="420" y="1740" as="targetPoint" />
          </mxGeometry>
        </mxCell>
        <mxCell id="90CxSvgSGTxoaNkG4nQN-138" value="SAVE" style="rounded=0;whiteSpace=wrap;html=1;" parent="1" vertex="1">
          <mxGeometry x="360" y="1620" width="120" height="60" as="geometry" />
        </mxCell>
        <mxCell id="90CxSvgSGTxoaNkG4nQN-139" style="edgeStyle=orthogonalEdgeStyle;rounded=0;orthogonalLoop=1;jettySize=auto;html=1;" parent="1" source="90CxSvgSGTxoaNkG4nQN-140" target="90CxSvgSGTxoaNkG4nQN-144" edge="1">
          <mxGeometry relative="1" as="geometry" />
        </mxCell>
        <mxCell id="90CxSvgSGTxoaNkG4nQN-140" value="DELETE" style="rounded=0;whiteSpace=wrap;html=1;" parent="1" vertex="1">
          <mxGeometry x="565" y="1620" width="120" height="60" as="geometry" />
        </mxCell>
        <mxCell id="90CxSvgSGTxoaNkG4nQN-141" style="edgeStyle=orthogonalEdgeStyle;rounded=0;orthogonalLoop=1;jettySize=auto;html=1;entryX=0.5;entryY=0;entryDx=0;entryDy=0;" parent="1" source="90CxSvgSGTxoaNkG4nQN-142" target="90CxSvgSGTxoaNkG4nQN-147" edge="1">
          <mxGeometry relative="1" as="geometry">
            <Array as="points">
              <mxPoint x="220" y="1850" />
              <mxPoint x="420" y="1850" />
            </Array>
          </mxGeometry>
        </mxCell>
        <mxCell id="90CxSvgSGTxoaNkG4nQN-142" value="DATABASE" style="strokeWidth=2;html=1;shape=mxgraph.flowchart.database;whiteSpace=wrap;" parent="1" vertex="1">
          <mxGeometry x="165" y="1740" width="110" height="60" as="geometry" />
        </mxCell>
        <mxCell id="90CxSvgSGTxoaNkG4nQN-143" style="edgeStyle=orthogonalEdgeStyle;rounded=0;orthogonalLoop=1;jettySize=auto;html=1;" parent="1" source="90CxSvgSGTxoaNkG4nQN-144" target="90CxSvgSGTxoaNkG4nQN-147" edge="1">
          <mxGeometry relative="1" as="geometry">
            <Array as="points">
              <mxPoint x="625" y="1850" />
              <mxPoint x="420" y="1850" />
            </Array>
          </mxGeometry>
        </mxCell>
        <mxCell id="90CxSvgSGTxoaNkG4nQN-144" value="DATABASE" style="strokeWidth=2;html=1;shape=mxgraph.flowchart.database;whiteSpace=wrap;" parent="1" vertex="1">
          <mxGeometry x="570" y="1740" width="110" height="60" as="geometry" />
        </mxCell>
        <mxCell id="90CxSvgSGTxoaNkG4nQN-145" style="edgeStyle=orthogonalEdgeStyle;rounded=0;orthogonalLoop=1;jettySize=auto;html=1;" parent="1" source="90CxSvgSGTxoaNkG4nQN-146" target="90CxSvgSGTxoaNkG4nQN-147" edge="1">
          <mxGeometry relative="1" as="geometry" />
        </mxCell>
        <mxCell id="90CxSvgSGTxoaNkG4nQN-146" value="DATABASE" style="strokeWidth=2;html=1;shape=mxgraph.flowchart.database;whiteSpace=wrap;" parent="1" vertex="1">
          <mxGeometry x="365" y="1740" width="110" height="60" as="geometry" />
        </mxCell>
        <mxCell id="90CxSvgSGTxoaNkG4nQN-147" value="END" style="ellipse;whiteSpace=wrap;html=1;" parent="1" vertex="1">
          <mxGeometry x="360" y="1890" width="120" height="80" as="geometry" />
        </mxCell>
        <mxCell id="90CxSvgSGTxoaNkG4nQN-148" style="edgeStyle=orthogonalEdgeStyle;rounded=0;orthogonalLoop=1;jettySize=auto;html=1;" parent="1" source="90CxSvgSGTxoaNkG4nQN-149" target="_gVNaFT30JaBbOKJO6MK-1" edge="1">
          <mxGeometry relative="1" as="geometry">
            <mxPoint x="413.0999999999999" y="2390" as="targetPoint" />
          </mxGeometry>
        </mxCell>
        <mxCell id="90CxSvgSGTxoaNkG4nQN-149" value="START" style="ellipse;whiteSpace=wrap;html=1;" parent="1" vertex="1">
          <mxGeometry x="353.13" y="2280" width="120" height="80" as="geometry" />
        </mxCell>
        <mxCell id="90CxSvgSGTxoaNkG4nQN-150" style="edgeStyle=orthogonalEdgeStyle;rounded=0;orthogonalLoop=1;jettySize=auto;html=1;" parent="1" target="90CxSvgSGTxoaNkG4nQN-153" edge="1">
          <mxGeometry relative="1" as="geometry">
            <mxPoint x="413.0999999999999" y="2470" as="sourcePoint" />
          </mxGeometry>
        </mxCell>
        <mxCell id="90CxSvgSGTxoaNkG4nQN-152" style="edgeStyle=orthogonalEdgeStyle;rounded=0;orthogonalLoop=1;jettySize=auto;html=1;" parent="1" source="90CxSvgSGTxoaNkG4nQN-153" target="90CxSvgSGTxoaNkG4nQN-155" edge="1">
          <mxGeometry relative="1" as="geometry" />
        </mxCell>
        <mxCell id="90CxSvgSGTxoaNkG4nQN-153" value="session_start();&lt;br&gt;session_unset();&lt;br&gt;session_destroy();" style="rounded=0;whiteSpace=wrap;html=1;" parent="1" vertex="1">
          <mxGeometry x="343.38" y="2510" width="139.5" height="60" as="geometry" />
        </mxCell>
        <mxCell id="90CxSvgSGTxoaNkG4nQN-154" style="edgeStyle=orthogonalEdgeStyle;rounded=0;orthogonalLoop=1;jettySize=auto;html=1;" parent="1" source="90CxSvgSGTxoaNkG4nQN-155" target="90CxSvgSGTxoaNkG4nQN-156" edge="1">
          <mxGeometry relative="1" as="geometry" />
        </mxCell>
        <mxCell id="90CxSvgSGTxoaNkG4nQN-155" value="header(&quot;location:index.php&quot;);" style="shape=parallelogram;perimeter=parallelogramPerimeter;whiteSpace=wrap;html=1;fixedSize=1;" parent="1" vertex="1">
          <mxGeometry x="305.63" y="2610" width="215" height="60" as="geometry" />
        </mxCell>
        <mxCell id="90CxSvgSGTxoaNkG4nQN-156" value="END" style="ellipse;whiteSpace=wrap;html=1;" parent="1" vertex="1">
          <mxGeometry x="353.13" y="2710" width="120" height="80" as="geometry" />
        </mxCell>
        <mxCell id="90CxSvgSGTxoaNkG4nQN-157" value="LOGOUT" style="text;html=1;align=center;verticalAlign=middle;whiteSpace=wrap;rounded=0;" parent="1" vertex="1">
          <mxGeometry x="246.13" y="2300" width="60" height="30" as="geometry" />
        </mxCell>
        <mxCell id="90CxSvgSGTxoaNkG4nQN-158" value="REGISTER" style="text;html=1;align=center;verticalAlign=middle;whiteSpace=wrap;rounded=0;" parent="1" vertex="1">
          <mxGeometry x="275" y="1275" width="60" height="30" as="geometry" />
        </mxCell>
        <mxCell id="90CxSvgSGTxoaNkG4nQN-159" value="CRUD datasiswa" style="text;html=1;align=center;verticalAlign=middle;whiteSpace=wrap;rounded=0;" parent="1" vertex="1">
          <mxGeometry x="1125" y="1255" width="60" height="30" as="geometry" />
        </mxCell>
        <mxCell id="90CxSvgSGTxoaNkG4nQN-160" value="CRUD dataguru" style="text;html=1;align=center;verticalAlign=middle;whiteSpace=wrap;rounded=0;" parent="1" vertex="1">
          <mxGeometry x="1125" y="145" width="60" height="30" as="geometry" />
        </mxCell>
        <mxCell id="90CxSvgSGTxoaNkG4nQN-161" value="LOGIN" style="text;html=1;align=center;verticalAlign=middle;whiteSpace=wrap;rounded=0;" parent="1" vertex="1">
          <mxGeometry x="323" y="146" width="60" height="30" as="geometry" />
        </mxCell>
        <mxCell id="veNel04tSqyvp54oFV3x-3" style="edgeStyle=orthogonalEdgeStyle;rounded=0;orthogonalLoop=1;jettySize=auto;html=1;exitX=0.5;exitY=1;exitDx=0;exitDy=0;" parent="1" source="veNel04tSqyvp54oFV3x-1" target="veNel04tSqyvp54oFV3x-2" edge="1">
          <mxGeometry relative="1" as="geometry" />
        </mxCell>
        <mxCell id="veNel04tSqyvp54oFV3x-1" value="START" style="ellipse;whiteSpace=wrap;html=1;" parent="1" vertex="1">
          <mxGeometry x="1180" y="2275" width="120" height="80" as="geometry" />
        </mxCell>
        <mxCell id="veNel04tSqyvp54oFV3x-6" style="edgeStyle=orthogonalEdgeStyle;rounded=0;orthogonalLoop=1;jettySize=auto;html=1;" parent="1" source="veNel04tSqyvp54oFV3x-2" target="veNel04tSqyvp54oFV3x-5" edge="1">
          <mxGeometry relative="1" as="geometry" />
        </mxCell>
        <mxCell id="veNel04tSqyvp54oFV3x-2" value="PRINT" style="shape=process;whiteSpace=wrap;html=1;backgroundOutline=1;" parent="1" vertex="1">
          <mxGeometry x="1180" y="2400" width="120" height="60" as="geometry" />
        </mxCell>
        <mxCell id="veNel04tSqyvp54oFV3x-9" style="edgeStyle=orthogonalEdgeStyle;rounded=0;orthogonalLoop=1;jettySize=auto;html=1;" parent="1" source="veNel04tSqyvp54oFV3x-4" target="veNel04tSqyvp54oFV3x-8" edge="1">
          <mxGeometry relative="1" as="geometry" />
        </mxCell>
        <mxCell id="veNel04tSqyvp54oFV3x-4" value="PREVIEW DATA" style="shape=parallelogram;perimeter=parallelogramPerimeter;whiteSpace=wrap;html=1;fixedSize=1;" parent="1" vertex="1">
          <mxGeometry x="1165" y="2620" width="150" height="60" as="geometry" />
        </mxCell>
        <mxCell id="veNel04tSqyvp54oFV3x-7" style="edgeStyle=orthogonalEdgeStyle;rounded=0;orthogonalLoop=1;jettySize=auto;html=1;" parent="1" source="veNel04tSqyvp54oFV3x-5" target="veNel04tSqyvp54oFV3x-4" edge="1">
          <mxGeometry relative="1" as="geometry" />
        </mxCell>
        <mxCell id="veNel04tSqyvp54oFV3x-5" value="DATABASE" style="shape=cylinder3;whiteSpace=wrap;html=1;boundedLbl=1;backgroundOutline=1;size=15;" parent="1" vertex="1">
          <mxGeometry x="1185" y="2500" width="110" height="80" as="geometry" />
        </mxCell>
        <mxCell id="veNel04tSqyvp54oFV3x-11" style="edgeStyle=orthogonalEdgeStyle;rounded=0;orthogonalLoop=1;jettySize=auto;html=1;" parent="1" source="veNel04tSqyvp54oFV3x-8" target="veNel04tSqyvp54oFV3x-10" edge="1">
          <mxGeometry relative="1" as="geometry" />
        </mxCell>
        <mxCell id="veNel04tSqyvp54oFV3x-8" value="DOWNLOAD" style="rounded=0;whiteSpace=wrap;html=1;" parent="1" vertex="1">
          <mxGeometry x="1180" y="2730" width="120" height="60" as="geometry" />
        </mxCell>
        <mxCell id="veNel04tSqyvp54oFV3x-10" value="END" style="ellipse;whiteSpace=wrap;html=1;" parent="1" vertex="1">
          <mxGeometry x="1180" y="2840" width="120" height="80" as="geometry" />
        </mxCell>
        <mxCell id="_gVNaFT30JaBbOKJO6MK-2" value="" style="edgeStyle=orthogonalEdgeStyle;rounded=0;orthogonalLoop=1;jettySize=auto;html=1;" parent="1" source="_gVNaFT30JaBbOKJO6MK-1" target="90CxSvgSGTxoaNkG4nQN-153" edge="1">
          <mxGeometry relative="1" as="geometry" />
        </mxCell>
        <mxCell id="_gVNaFT30JaBbOKJO6MK-1" value="PROSES" style="rounded=0;whiteSpace=wrap;html=1;" parent="1" vertex="1">
          <mxGeometry x="353.13" y="2400" width="120" height="60" as="geometry" />
        </mxCell>
      </root>
    </mxGraphModel>
  </diagram>
</mxfile>
